<!-- icon666.com - MILLIONS vector ICONS FREE --><svg id="Layer_1" enable-background="new 0 0 64 64" viewBox="0 0 64 64" xmlns="http://www.w3.org/2000/svg"><path d="m4.7 30c-.2 1.4-1.3 5.4-1.3 5.4l-.2-5.4z"></path><path d="m61 35.9s-1.6-4.3-1.8-5.9h1.8z"></path><path d="m61 28h-2c-.2-2.8.6-8.4 2-9.4z"></path><path d="m56.7 30c0 1.6-4.1 15-4.1 15-.3 1-1.3 1-1.3 1-.6 0-1.1-.5-1.2-1.1l-1.5-6.6c-.4-1.6-1.7-2.7-3.2-2.7s-2.8 1.1-3.2 2.7l-1.5 6.6c-.1.7-.7 1.1-1.3 1.1-.2 0-1 0-1.3-.9 0 0-4.9-13.5-4.9-15h7.7v1.4c0 1.4 1.2 2.6 2.6 2.6h2.8c1.4 0 2.6-1.2 2.6-2.6v-1.5z"></path><path d="m46.9 27v4c0 .6-.4 1-1 1h-2c-.5 0-1-.5-1-1v-4c0-.5.5-1 1-1h2c.6 0 1 .4 1 1z"></path><path d="m49.2 18.5c-.7.9-1.5 1.6-2.6 1.7-1.1 0-2.5-1.4-2.7-1.6.7-.3 2.6-1.1 5.3-.1z"></path><path d="m48.9 28v-1.4c0-1.4-1.2-2.6-2.6-2.6h-2.8c-1.4 0-2.6 1.2-2.6 2.6v1.4h-7.9c-.2-2.8.2-5.7 1.3-8.4.4-1 1.6-2.1 3-1.3-.5.3-.9.7-1.3 1-.4.4-.4 1 0 1.4s1 .4 1.4 0c1-1 2-1.2 2-1.2 1-.3 2.4-.2 3.8 1.1 1.1 1.1 2.3 1.7 3.5 1.7 1.7 0 3-1.2 3.4-1.7l1.6-1.8c2.4-2.2 3.9 1.3 3.9 1.4 1 2.5 1.4 5.2 1.3 7.9h-8z"></path><path d="m30.7 30c0 1.6-4.1 15-4.1 15-.3 1-1.3 1-1.3 1-.6 0-1.1-.5-1.2-1.1l-1.5-6.6c-.4-1.6-1.7-2.7-3.2-2.7s-2.8 1.1-3.2 2.7l-1.5 6.6c-.1.6-.7 1.1-1.3 1.1-.2 0-1 0-1.3-.9 0 0-4.9-13.5-4.9-15h7.7v1.4c0 1.4 1.2 2.6 2.6 2.6h2.8c1.4 0 2.6-1.2 2.6-2.6v-1.5z"></path><path d="m20.9 27v4c0 .6-.4 1-1 1h-2c-.5 0-1-.5-1-1v-4c0-.5.5-1 1-1h2c.5 0 1 .5 1 1z"></path><path d="m23.1 18.6c-.7.9-1.5 1.6-2.6 1.7-1.1 0-2.5-1.4-2.7-1.6.8-.4 2.7-1.2 5.3-.1z"></path><path d="m22.9 28v-1.4c0-1.4-1.2-2.6-2.6-2.6h-2.8c-1.4 0-2.6 1.2-2.6 2.6v1.4h-7.9c-.2-2.8.2-5.7 1.3-8.4.4-1 1.6-2.1 3-1.3-.5.3-.9.7-1.3 1-.4.4-.4 1 0 1.4s1 .4 1.4 0c1-1 2-1.2 2-1.2 1-.3 2.4-.2 3.8 1.1 1.1 1.1 2.3 1.7 3.5 1.7 1.7 0 3-1.2 3.4-1.7l1.6-1.8c2.4-2.2 3.9 1.3 3.9 1.4 1 2.5 1.4 5.2 1.3 7.9h-8z"></path><path d="m4.9 28h-1.7l-.2-9c1.4 1.9 2 6.3 1.9 9z"></path></svg>