<!-- icon666.com - MILLIONS vector ICONS FREE --><svg id="Capa_1" enable-background="new 0 0 512 512" viewBox="0 0 512 512" xmlns="http://www.w3.org/2000/svg"><g><path d="m322.73 0v72.33h72.32z"></path><path d="m195.62 199.55h199.43v-97.22h-102.32v-102.33h-175.78v136.04h25.76zm-31.83-147.46h82.09v30h-82.09z"></path><path d="m425.05 229.55c-10.731 0-225.8 0-243.48 0l-52.92-63.51c-25.74 0-71.952 0-98.19 0v131.18h140.58c14.887-35.684 57.566-37.665 80.84-12.01h8.24c9.02-8.7 18.98-16.96 37.25-17.22 19.894-.634 36.507 11.592 43.59 29.23h140.58v-67.67z"></path><path d="m347.3 327.22c.728 27.555-3.835 54.675-10.01 80.58-6.175 26.591-17.179 56.471-21.7 66.73h-45.08l-14.47-46.17-14.57 46.17h-45.06c-4.427-10.009-15.586-40.318-21.7-66.73-6.175-25.902-10.739-53.029-10.01-80.58-39.373 0-94.74 0-134.24 0v184.78h451.08v-184.78c-11.147 0-123.493 0-134.24 0z"></path><path d="m205.69 407.8c3.04 11.794 9.185 27.48 12.525 36.73 1.379-4.404 8.72-23.592 9.965-27.55 3.742-12.045 14.98-20.457 27.86-20.43 12.92-.031 24.154 8.412 27.89 20.49 1.212 3.837 8.543 23.261 9.87 27.49 11.98-34.5 23.401-74.314 23.62-112.27.047-6.702-.937-14.501-2.82-20.04-2.976-8.255-6.402-14.257-16.82-14.23-7.61.11-10.45 2.56-19.14 11.06-1.848 1.744-4.451 4.387-6.33 6.16h-32.62c-1.905-1.79-4.478-4.382-6.33-6.16-8.69-8.5-11.53-10.95-19.14-11.06-5.854-.151-9.407 2.181-11.01 3.89-17.963 18.808-3.455 82.42 2.48 105.92z"></path></g></svg>