<?xml version="1.0" ?><svg viewBox="0 0 22.58 21.66" xmlns="http://www.w3.org/2000/svg"><defs><style>.cls-1{fill:#1a171b;}</style></defs><g data-name="Layer 2" id="Layer_2"><g data-name="Layer 1" id="Layer_1-2"><path class="cls-1" d="M22.247,8.339H21.13C21.928.6,16.268-2,11.371,1.648,5.633-2.525.5,1.785,1.461,8.339H.342a.343.343,0,0,0,0,.685H1.537a26.379,26.379,0,0,0,4.38,12.122,1.291,1.291,0,0,0,2.309-.791C8.61,15.768,10.272,14.1,11.3,14.1s2.685,1.665,3.07,6.251a1.292,1.292,0,0,0,2.31.791A26.385,26.385,0,0,0,21.054,9.024h1.193A.343.343,0,0,0,22.247,8.339ZM16.128,20.733c-.374.481-1.012.229-1.08-.437-.4-4.751-2.172-6.877-3.752-6.877S7.942,15.546,7.544,20.3c-.07.666-.7.914-1.08.436A25.608,25.608,0,0,1,2.227,9.024H6.389V10.05A1.713,1.713,0,0,0,8.1,11.762h6.389A1.714,1.714,0,0,0,16.2,10.05V9.024h4.165A25.6,25.6,0,0,1,16.128,20.733ZM15.516,8.339h-2.51c-.045-.338.178-1.134-.342-1.141s-.3.8-.343,1.141H10.268C10.223,8,10.446,7.205,9.925,7.2s-.3.8-.342,1.141H7.073V7.312A1.029,1.029,0,0,1,8.1,6.285h6.389a1.029,1.029,0,0,1,1.027,1.027Zm-5.933.685c.045.34-.178,1.133.342,1.14s.3-.8.343-1.14h2.053c.045.34-.178,1.133.343,1.14s.3-.8.342-1.14h2.51V10.05a1.028,1.028,0,0,1-1.027,1.027H8.1A1.028,1.028,0,0,1,7.073,10.05V9.024Zm10.93-1.45c-.02.255-.044.51-.07.765H16.2V7.312A1.714,1.714,0,0,0,14.489,5.6H8.1A1.713,1.713,0,0,0,6.389,7.312V8.339H2.149C1.591,4.982,3.026.668,6.856.675c3.123.006,6.086,3.206,6.115,3.238.293.332.811-.138.505-.461a12.809,12.809,0,0,0-1.528-1.38C16.172-1.016,20.855,1.158,20.513,7.574Z" id="braces"/></g></g></svg>