<!-- icon666.com - MILLIONS vector ICONS FREE --><svg clip-rule="evenodd" fill-rule="evenodd" image-rendering="optimizeQuality" shape-rendering="geometricPrecision" text-rendering="geometricPrecision" viewBox="0 0 1706.66 1706.66" xmlns="http://www.w3.org/2000/svg" xmlns:xodm="http://www.corel.com/coreldraw/odm/2003"><g id="Layer_x0020_1"><g fill="#0cf"><path d="m853.34 1706.45c-7.41 0-34.61-13.07-42.87-16.61-310.25-132.81-498.48-344.56-588.53-642.65l-.85-713.57c0-69.92 256.23 84.89 550.32-250.61 95.99-109.5 67.83-109.5 163.83 0 294.08 335.49 550.33 180.69 550.33 250.61l-.86 713.58c-89.88 297.98-278.46 509.96-588.53 642.66-8.24 3.53-35.46 16.59-42.84 16.59zm-592.26-667.98c87.17 288.23 264.09 485.74 565.12 614.61l27.14 11.62 27.11-11.61c293.37-125.56 477.26-323.41 562.18-604.89l2.94-9.75v-685.28l-67.41-1.5c-181.28-4-331.57-81-473-242.3l-51.83-59.13-51.83 59.13c-141.43 161.31-291.72 238.3-473.02 242.3l-67.41 1.5v685.29z"></path><path d="m853.34 1609.72c-2.68 0-5.36-.54-7.86-1.61-279.23-119.52-454.11-307.29-534.59-574.05l-.86-613.46c0-10.87 8.68-19.74 19.55-19.98 195.97-4.34 357.61-86.64 508.7-258.98 7.59-8.67 22.49-8.67 30.08 0 151.09 172.35 312.75 254.65 508.72 258.99 10.86.24 19.56 9.12 19.56 19.98l-.86 613.46c-80.49 266.76-255.36 454.54-534.59 574.04-2.48 1.07-5.16 1.61-7.84 1.61zm-503.31-584.41c76.48 250.75 241.18 428.32 503.31 542.61 262.14-114.29 426.83-291.87 503.3-542.61v-585.42c-190.31-9.31-355.33-92.96-503.3-255.1-147.97 162.15-313.01 245.8-503.31 255.1z"></path><path d="m738.17 1246.98c-4.37 0-8.75-1.44-12.39-4.3-151.35-119.34-152.1-275.44-132.6-401.35-148.5-107.03-74.69-343.8 113.43-343.8 124.79 0 120.21 89.27 171.57 44.75 114.92-99.62 314.12-24.46 314.12 144.91 0 61.73-29.22 118.41-78.81 154.16 19.5 125.91 18.76 282.02-132.6 401.35-15.59 12.3-37.83-3.67-31.24-22.36 49.63-140.44-61.56-225.89-96.29-248.48-34.37 22.52-144.27 107.35-97.34 245.61 7.76 17.71-5.85 29.52-17.85 29.52zm115.17-318.58c19.02 0 159.87 95.93 148.07 241.17 74.5-81.27 95.62-184.89 70.58-334.39-1.35-8 2.28-16.01 9.18-20.29 125.91-78.07 76.47-277.35-81.11-277.35-103.92 0-118.21 104.02-197.79 34.95-87.85-76.25-247.9-23.06-247.9 114.69 0 52.33 26.59 100.06 71.13 127.69 6.89 4.28 10.52 12.29 9.18 20.29-25.04 149.5-3.93 253.11 70.58 334.39-11.8-145.18 129.01-241.15 148.07-241.15z"></path><path d="m853.34 699.79c-28.78 0-112.83-37.02-86.46-67.44 32.09-37 53.1 77.41 144.69-2 19.9-17.25 46.09 12.96 26.19 30.21-29.03 25.16-56.8 39.23-84.43 39.23z"></path></g><path d="m868.36 141.64c151.09 172.35 312.75 254.65 508.72 258.99 10.86.24 19.56 9.12 19.56 19.98l-.86 613.46c-80.49 266.76-255.36 454.54-534.59 574.04-2.48 1.07-5.16 1.61-7.84 1.61s-5.36-.54-7.86-1.61c-279.23-119.52-454.11-307.29-534.59-574.05l-.86-613.46c0-10.87 8.68-19.74 19.55-19.98 195.97-4.34 357.61-86.64 508.7-258.98 7.59-8.67 22.49-8.67 30.08 0zm-42.16 1511.44 27.14 11.62 27.11-11.61c293.37-125.56 477.26-323.41 562.18-604.89l2.94-9.75v-685.28l-67.41-1.5c-181.28-4-331.57-81-473-242.3l-51.83-59.13-51.83 59.13c-141.43 161.31-291.72 238.3-473.02 242.3l-67.41 1.5v685.29c87.17 288.23 264.09 485.74 565.12 614.61z" fill="#96eaff"></path><path d="m1356.64 439.9c-190.31-9.31-355.33-92.96-503.3-255.1-147.97 162.15-313.01 245.8-503.31 255.1v585.42c76.48 250.75 241.18 428.32 503.31 542.61 262.14-114.29 426.83-291.87 503.3-542.61zm-650.04 57.63c124.79 0 120.21 89.27 171.57 44.75 114.92-99.62 314.12-24.46 314.12 144.91 0 61.73-29.22 118.41-78.81 154.16 19.5 125.91 18.76 282.02-132.6 401.35-15.59 12.3-37.83-3.67-31.24-22.36 49.63-140.44-61.56-225.89-96.29-248.48-34.37 22.52-144.27 107.35-97.34 245.61 7.76 17.71-5.85 29.52-17.85 29.52-4.37 0-8.75-1.44-12.39-4.3-151.35-119.34-152.1-275.44-132.6-401.35-148.5-107.03-74.69-343.8 113.43-343.8z" fill="#96eaff"></path></g></svg>