<!-- icon666.com - MILLIONS vector ICONS FREE --><svg version="1.1" id="Capa_1" xmlns="http://www.w3.org/2000/svg" xmlns:xlink="http://www.w3.org/1999/xlink" x="0px" y="0px" viewBox="0 0 395.947 395.947" style="enable-background:new 0 0 395.947 395.947;" xml:space="preserve"><path style="fill:#FFE600;" d="M187.112,30.136c-39.724,0-65.935,45.623-65.935,101.902s26.211,233.772,65.935,233.772 c23.173,0,25.808-147.398,56.945-147.531c37.13,0.133,33.771,147.531,56.945,147.531c39.724,0,65.935-177.493,65.935-233.772 S340.726,30.136,301.001,30.136c-18.982,0-37.963,17.981-56.945,17.981S206.094,30.136,187.112,30.136z"></path><path style="fill:#602F75;" d="M301.005,372.637c-15.961,0-20.613-26.436-27.665-66.458c-5.68-32.263-14.275-81.019-29.307-81.074 c-11.087,0.048-20.654,47.869-26.368,76.445c-9.346,46.715-14.947,71.086-30.553,71.086c-7.881,0-31.87,0-54.525-101.117 c-11.848-52.862-18.237-111.319-18.237-139.482c0-63,30.601-108.728,72.759-108.728c11.025,0,21.388,4.908,31.399,9.649 c9.045,4.287,17.592,8.332,25.545,8.332c7.953,0,16.5-4.048,25.545-8.332c10.015-4.745,20.374-9.649,31.399-9.649 c42.161,0,72.759,45.725,72.759,108.728c0,28.163-6.393,86.62-18.234,139.482C332.875,372.637,308.883,372.637,301.005,372.637z M244.029,211.453c26.501,0.096,34.768,46.998,42.752,92.358c3.652,20.746,9.178,52.098,14.787,55.293 c28.252-0.119,58.539-157.594,58.539-227.065c0-55.091-24.859-95.075-59.105-95.075c-7.96,0-16.507,4.052-25.552,8.335 c-10.015,4.745-20.367,9.646-31.392,9.646s-21.381-4.905-31.392-9.646c-9.045-4.287-17.592-8.335-25.552-8.335 c-34.249,0-59.105,39.984-59.105,95.075c0,69.475,30.29,226.946,59.105,226.946c5.755-3.079,12.619-37.4,17.159-60.109 C213.644,252.017,221.744,211.552,244.029,211.453z"></path><path style="fill:#FFFFFF;" d="M306.316,166.659c1.703-17.538,2.594-32.717,2.594-43.779c0-64.096-29.85-116.053-75.093-116.053 c-21.617,0-43.237,20.48-64.853,20.48s-43.237-20.48-64.853-20.48c-45.244,0-75.093,51.958-75.093,116.053 s29.85,266.24,75.093,266.24c26.392,0,29.392-167.868,64.853-168.021c42.288,0.154,38.461,168.021,64.853,168.021 c30.956,0,54.709-94.641,66.621-174.94"></path><path style="fill:#602F75;" d="M233.817,395.947c-17.381,0-22.627-29.798-30.573-74.909c-6.526-37.052-16.394-93.047-34.304-93.109 c-13.411,0.058-24.399,54.996-30.966,87.822c-10.243,51.217-16.869,80.196-33.864,80.196c-55.572,0-81.92-219.027-81.92-273.067 C22.19,51.681,56.644,0,104.11,0c12.343,0,24.04,5.54,35.348,10.895c10.404,4.932,20.231,9.585,29.505,9.585 s19.101-4.652,29.508-9.585C209.777,5.54,221.471,0,233.817,0c47.466,0,81.92,51.681,81.92,122.88 c0,11.424-0.908,26.791-2.628,44.438c-0.358,3.755-3.632,6.54-7.455,6.134c-3.755-0.362-6.499-3.703-6.134-7.455 c1.673-17.22,2.56-32.126,2.56-43.117c0-63.29-28.713-109.227-68.267-109.227c-9.274,0-19.101,4.652-29.508,9.585 c-11.302,5.356-22.996,10.895-35.342,10.895c-12.343,0-24.04-5.54-35.348-10.895c-10.404-4.932-20.231-9.585-29.505-9.585 c-39.557,0-68.267,45.937-68.267,109.227c0,72.66,32.457,259.413,68.267,259.413c7.151-2.594,15.493-44.302,20.477-69.222 c10.155-50.753,19.739-98.693,44.346-98.796c29.382,0.102,38.724,53.122,47.756,104.397c4.267,24.245,10.721,60.884,17.347,63.659 c20.255-0.038,44.872-69.581,59.648-169.155c0.56-3.727,4.028-6.274,7.752-5.751c3.734,0.553,6.308,4.028,5.755,7.755 C283.856,372.463,251.204,395.947,233.817,395.947z"></path><path style="fill:#EA3457;" d="M123.092,61.44c-32,0-53.115,29.689-53.115,66.318s7.462,152.136,39.462,152.136 c18.668,0,21.978-96.01,59.525-96.01c51.2,0,40.858,96.01,59.525,96.01c32,0,39.462-115.511,39.462-152.136 S246.835,61.44,214.835,61.44c-15.292,0-30.58,11.704-45.872,11.704S138.383,61.44,123.092,61.44z"></path><path style="fill:#00E7FF;" d="M63.15,95.573c-3.768,0-6.827-3.058-6.827-6.827c0-33.877,27.563-61.44,61.44-61.44 c3.768,0,6.827,3.058,6.827,6.827c0,3.768-3.058,6.827-6.827,6.827c-26.351,0-47.787,21.436-47.787,47.787 C69.977,92.515,66.918,95.573,63.15,95.573z"></path></svg>