<!-- icon666.com - MILLIONS vector ICONS FREE --><svg viewBox="0 0 64 64" xmlns="http://www.w3.org/2000/svg"><g id="Filled_outline" data-name="Filled outline"><g id="Color"><rect fill="#01cadb" height="46" rx="4" width="58" x="3" y="3"></rect><path d="m61 41v4a4 4 0 0 1 -4 4h-50a4 4 0 0 1 -4-4v-4z" fill="#2e3d4c"></path><path d="m18 57h28a2 2 0 0 1 2 2v2a0 0 0 0 1 0 0h-32a0 0 0 0 1 0 0v-2a2 2 0 0 1 2-2z" fill="#2e3d4c"></path><path d="m39 49h-14c-.508 3.253-2.851 5.921-5 8h24c-2.149-2.079-4.492-4.747-5-8z" fill="#232e39"></path><path d="m44.638 14.176c-6-7-13.979-.32-11.494 6.317.83 2.233 2.685 3.9 3.208 6.254.261 1.177.064 2.378.367 3.548.381 1.491 1.281 3.016 3.013 2.975 3.906-.094 2.781-6.844 4.906-7.094 2.125.25 1 7 4.907 7.094 1.735.041 2.627-1.484 3.013-2.975.3-1.17.106-2.371.367-3.548.523-2.355 2.378-4.021 3.208-6.254 2.484-6.637-5.495-13.317-11.495-6.317z" fill="#e4f4fd"></path></g><g id="Outline" fill="#1e120b"><path d="m57 2h-50a5.006 5.006 0 0 0 -5 5v38a5.006 5.006 0 0 0 5 5h16.736a15.523 15.523 0 0 1 -4.148 6h-1.588a3 3 0 0 0 -3 3v2a1 1 0 0 0 1 1h32a1 1 0 0 0 1-1v-2a3 3 0 0 0 -3-3h-1.588a15.523 15.523 0 0 1 -4.148-6h16.736a5.006 5.006 0 0 0 5-5v-38a5.006 5.006 0 0 0 -5-5zm-11 56a1 1 0 0 1 1 1v1h-30v-1a1 1 0 0 1 1-1zm-4.36-2h-19.28a14.494 14.494 0 0 0 3.44-6h12.41a14.494 14.494 0 0 0 3.43 6zm18.36-11a3 3 0 0 1 -3 3h-50a3 3 0 0 1 -3-3v-3h56zm0-5h-56v-33a3 3 0 0 1 3-3h50a3 3 0 0 1 3 3z"></path><circle cx="32" cy="45" r="1"></circle><circle cx="8" cy="18" r="1"></circle><path d="m8 15a1 1 0 0 0 1-1v-6a1 1 0 0 0 -2 0v6a1 1 0 0 0 1 1z"></path><path d="m53.779 11.174c-2.345-1.385-5.893-1.629-9.14 1.539-3.245-3.169-6.8-2.926-9.142-1.539a7.534 7.534 0 0 0 -1.613 1.3l-5.177-5.181a1 1 0 0 0 -.707-.293h-14a1 1 0 0 0 0 2h13.586l5.1 5.1a7.906 7.906 0 0 0 -.478 6.743 15.049 15.049 0 0 0 1.584 2.913 17.33 17.33 0 0 1 1.117 1.924l-7.323 7.32h-19.586a1 1 0 0 0 0 2h20a1 1 0 0 0 .707-.293l6.783-6.783c.011.184.021.367.028.558a9.247 9.247 0 0 0 .233 2.064c.627 2.412 2.079 3.769 4.006 3.724 3.018-.071 3.775-3.071 4.276-5.053.15-.593.165-1.895.6-1.9s.461 1.308.61 1.9c.5 1.982 1.258 4.982 4.277 5.053 1.928.045 3.379-1.313 4-3.724a9.32 9.32 0 0 0 .234-2.066 8.448 8.448 0 0 1 .142-1.516 10.143 10.143 0 0 1 1.585-3.209 15.043 15.043 0 0 0 1.583-2.912 7.939 7.939 0 0 0 -3.285-9.669zm1.416 8.97a13.351 13.351 0 0 1 -1.389 2.527 11.838 11.838 0 0 0 -1.858 3.859 10.144 10.144 0 0 0 -.187 1.879 7.843 7.843 0 0 1 -.171 1.636c-.265 1.03-.841 2.255-2.021 2.225-1.4-.036-1.85-1.425-2.385-3.543-.424-1.687-.878-3.551-2.545-3.551s-2.121 1.864-2.545 3.551c-.535 2.118-.99 3.506-2.386 3.543-1.18.03-1.756-1.194-2.021-2.226a7.667 7.667 0 0 1 -.17-1.632 10.166 10.166 0 0 0 -.189-1.882 11.821 11.821 0 0 0 -1.857-3.86 13.365 13.365 0 0 1 -1.391-2.528 5.944 5.944 0 0 1 2.434-7.242c2.375-1.4 5.128-.68 7.366 1.93a27.024 27.024 0 0 0 2.8 2.375 1 1 0 0 0 1.17-1.623c-.63-.454-1.275-1-1.777-1.447 2.1-2.02 4.55-2.5 6.692-1.235a5.943 5.943 0 0 1 2.435 7.244z"></path><path d="m22 13a1 1 0 0 0 0-2h-8a1 1 0 0 0 0 2z"></path><path d="m8 31h13a1 1 0 0 0 0-2h-13a1 1 0 0 0 0 2z"></path></g></g></svg>