<?xml version="1.0" ?><svg viewBox="0 0 22.589 22.59" xmlns="http://www.w3.org/2000/svg"><defs><style>.cls-1{fill:#1a171b;}</style></defs><g data-name="Layer 2" id="Layer_2"><g data-name="Layer 1" id="Layer_1-2"><path class="cls-1" d="M21.334,0H1.255A1.256,1.256,0,0,0,0,1.255v20.08A1.256,1.256,0,0,0,1.255,22.59H21.334a1.256,1.256,0,0,0,1.255-1.255V1.255A1.256,1.256,0,0,0,21.334,0Zm.571,21.335a.571.571,0,0,1-.571.57H1.255a.57.57,0,0,1-.57-.57V19.852h21.22Zm0-2.168H.685V3.423h21.22Zm0-16.429H.685V1.255a.57.57,0,0,1,.57-.57H21.334a.571.571,0,0,1,.571.57ZM4.468,16.78a.84.84,0,0,0,1.5-.5c.208-2.488,1.119-3.831,1.446-3.831s1.237,1.343,1.445,3.83a.9.9,0,0,0,.628.806c1.018.187,1.333-1.125,1.8-1.857.455.722.713,1.791,1.607,1.888a.881.881,0,0,0,.829-.836c.208-2.488,1.119-3.831,1.446-3.831s1.237,1.343,1.445,3.83a.876.876,0,0,0,.851.837.813.813,0,0,0,.652-.338,14.374,14.374,0,0,0,2.4-7.168c.265-3.46-2.511-5.391-5.279-3.15C14.238,5.7,12.7,4.993,11.316,5.907c-1.131-.929-3.189-.054-3.833.555-1.266-1.039-3.331-1.5-4.56-.017C.839,9.135,2.969,14.715,4.468,16.78ZM15.923,8.013a.343.343,0,0,0,.523-.442,7.393,7.393,0,0,0-.658-.664c.789-.661,2.516-1.2,3.366-.009A4.011,4.011,0,0,1,19.84,9.56a13.65,13.65,0,0,1-2.265,6.807c-.108.14-.253.041-.273-.144-.209-2.5-1.144-4.458-2.127-4.458s-1.919,1.959-2.129,4.459c-.174.859-1.2-1.44-1.382-1.83.8-2.406,1.979-5.631.194-8C13.7,5.438,15.9,7.986,15.923,8.013Zm-12.5-1.1c1.636-1.982,4.363.593,4.738,1.1a.343.343,0,0,0,.523-.442,7.127,7.127,0,0,0-.658-.662c2.239-1.72,4.24-.205,4.052,2.651-.25,2.6-1,5.428-2.4,6.868a.217.217,0,0,1-.136-.205c-.209-2.5-1.143-4.458-2.127-4.458S5.5,13.724,5.288,16.224a.217.217,0,0,1-.135.2C3.68,15.043,1.693,9.07,3.426,6.909Zm.461,3.713c-.123-.964-.292-2.11.569-2.831.365-.323,1.686-.573,1.6.187-.2.515-.782-.043-1.2.368-.534.443-.389,1.5-.3,2.161a.342.342,0,1,1-.675.115Z" data-name="dental imaging" id="dental_imaging"/></g></g></svg>