<!-- icon666.com - MILLIONS vector ICONS FREE --><svg id="Layer_1" enable-background="new 0 0 512 512" viewBox="0 0 512 512" xmlns="http://www.w3.org/2000/svg" xmlns:xlink="http://www.w3.org/1999/xlink"><linearGradient id="SVGID_1_" gradientUnits="userSpaceOnUse" x1="256" x2="256" y1="511.853" y2=".147"><stop offset="0" stop-color="#a93aff"></stop><stop offset="1" stop-color="#ff81ff"></stop></linearGradient><path d="m309.981 451.853h-23.981c-8.284 0-15-6.716-15-15v-60c-.756-19.877-29.251-19.862-30 0v60c0 8.284-6.716 15-15 15h-23.981c-22.25 0-41.401-16.61-44.548-38.637l-7.993-55.949c-1.097-7.68-4.858-14.92-10.592-20.386-35.886-33.019-37.271-94.126-1.861-128.381 13.193-13.326 29.739-22.051 47.848-25.23 25.525-4.483 51.182 1.983 71.126 17.436 19.944-15.452 45.6-21.914 71.126-17.437 18.109 3.181 34.655 11.905 47.849 25.231 13.19 13.323 21.751 29.953 24.759 48.093 4.922 29.689-5.029 59.703-26.62 80.288-5.733 5.466-9.495 12.706-10.592 20.386l-7.993 55.949c-3.146 22.027-22.297 38.637-44.547 38.637zm-8.981-30h8.981c7.417 0 13.801-5.537 14.85-12.879l7.993-55.949c2.045-14.319 9.002-27.764 19.589-37.856 14.61-13.93 21.07-33.491 17.725-53.669-4.043-24.39-23.864-44.408-48.201-48.683-20.744-3.64-40.764 3.05-54.927 18.355-5.635 6.36-16.385 6.36-22.02 0-14.164-15.308-34.187-22.001-54.928-18.354-47.725 8.368-65.852 69.397-30.475 102.351 10.587 10.093 17.544 23.537 19.589 37.856l7.993 55.949c1.049 7.342 7.433 12.879 14.85 12.879h8.981v-45c2.269-59.632 87.752-59.586 90 0zm166-362h-16v-15c-2.27-59.632-87.752-59.586-90 0v15h-60v-15c-2.27-59.632-87.752-59.586-90 0v15h-60v-15c-2.27-59.632-87.752-59.586-90 0v15h-16c-24.813 0-45 20.187-45 45v362c0 24.813 20.187 45 45 45h422c24.813 0 45-20.187 45-45v-362c0-24.813-20.187-45-45-45zm-76-15c.757-19.877 29.251-19.862 30 0v15h-30zm-150 0c.757-19.877 29.251-19.862 30 0v15h-30zm-150 0c.757-19.877 29.251-19.862 30 0v15h-30zm391 422c0 8.271-6.729 15-15 15h-422c-8.271 0-15-6.729-15-15v-362c0-8.271 6.729-15 15-15h16v15c0 24.813 20.187 45 45 45 8.284 0 15-6.716 15-15s-6.716-15-15-15c-8.271 0-15-6.729-15-15v-15h120v15c0 24.813 20.187 45 45 45 8.284 0 15-6.716 15-15s-6.716-15-15-15c-8.271 0-15-6.729-15-15v-15h120v15c0 24.813 20.187 45 45 45 8.284 0 15-6.716 15-15s-6.716-15-15-15c-8.271 0-15-6.729-15-15v-15h76c8.271 0 15 6.729 15 15z" fill="url(#SVGID_1_)"></path></svg>