<!-- icon666.com - MILLIONS vector ICONS FREE --><svg id="Draft" viewBox="0 0 500 500" xmlns="http://www.w3.org/2000/svg"><path d="m340.55 318.12h-32.1l-.06.03c-1.23 3.5-2.56 6.96-3.98 10.4-3.81 9.19-4.87 18.72-4.38 28.65.63 12.65-.37 25.21-5.15 37.17-.88 2.2-2.08 4.23-3.92 5.77-2.04 1.72-4.03 1.82-6.3.44-2.45-1.5-4-3.84-5.5-6.16-4.47-6.89-7.81-14.4-11.92-21.49-2.72-4.69-5.52-9.32-9.52-13.09-5.19-4.88-10.67-4.86-15.88.05-4.48 4.22-7.52 9.46-10.46 14.75-3.68 6.59-6.87 13.45-10.97 19.81-1.2 1.85-2.48 3.64-4.13 5.15-1.83 1.68-3.85 2.39-6.27 1.55-2.99-1.88-4.63-4.78-5.8-7.96-1.64-4.45-2.8-8.98-3.57-13.55-1.19-7.02-1.46-14.16-1.15-21.33.41-9 .03-17.76-3.02-26.29-1.67-4.65-3.64-9.2-5.31-13.86l-.1-.07h-162.25v153.82h442.38v-153.82h-130.64z" fill="#ff7f9f" style="fill: rgb(128, 189, 255);"></path><path d="m471.19 318.12v153.82h-442.38v-153.82c3.89 15.92 11.14 31.1 21.13 45.16 8.81 11.29 21.01 24.28 23.72 26.77 41.77 38.57 106.08 63.7 174.02 63.7s135.27-24.92 178.26-63.65c2.75-2.34 14.38-14.18 23.67-26.02 10.39-14.24 17.83-29.69 21.58-45.95z" fill="#ff4d7c" style="fill: rgb(77, 171, 219);"></path><path d="m154.83 54.83c-3.09 1.18-5.83 2.89-8.15 4.99l-.63-1.64z" fill="#c4c4cc"></path><path d="m181.23 72.76c3.08 8.08-.97 17.15-9.05 20.23-8.09 3.09-17.15-.96-20.24-9.04-1.52-3.99-1.31-8.22.27-11.85 1.62-3.72 4.68-6.83 8.78-8.39 4-1.53 8.24-1.31 11.87.28 3.72 1.62 6.81 4.68 8.36 8.77z" fill="#88939e"></path><path d="m159.66 52.98-4.83 1.85z" fill="#c4c4cc"></path><path d="m178.89 28.06h38.08c-1.13 3.36-2.37 6.71-3.76 10.04-2.33-.71-4.77-1.09-7.24-1.09-2.92 0-5.89.53-8.78 1.62l-29.49 11.27c1.4-.6 6.21-9.18 11.19-21.84z" fill="#88939e"></path><path d="m262.31 139.64s-.02-.05-.03-.08l-33.1-86.62c-2.83-7.41-8.89-12.69-15.97-14.84-2.33-.71-4.77-1.09-7.24-1.09-2.92 0-5.89.53-8.78 1.62l-29.49 11.27h-.02s-12.85 4.92-12.85 4.92c-3.09 1.18-5.83 2.89-8.15 4.99-4.93 4.46-8 10.67-8.57 17.25-.07.75-.1 1.51-.1 2.27 0 3.09.55 6.23 1.71 9.27 5.14 13.44 20.34 20.24 33.79 15.11l32.8-12.53 14.75 38.61 13.98 36.59c2.98 7.8 7.21 12.48 13.2 5.91l14.16-18.61c1.92-2.67 2.95-5.97-.11-14.04zm-90.13-46.65c-8.09 3.09-17.15-.96-20.24-9.04-1.52-3.99-1.31-8.22.27-11.85 1.62-3.72 4.68-6.83 8.78-8.39 4-1.53 8.24-1.31 11.87.28 3.72 1.62 6.81 4.68 8.36 8.77 3.08 8.08-.97 17.15-9.05 20.23z" fill="#f0f0f8"></path><path d="m173.51 103.72c-13.45 5.13-28.65-1.67-33.79-15.11-1.17-3.04-1.71-6.18-1.71-9.27 0-.76.03-1.52.1-2.27.57-6.59 3.64-12.8 8.57-17.25l-.63-1.64-.08.03-28.67 10.96c-5.52 2.11-9.86 6.01-12.6 10.79-3.58 6.25-4.45 13.99-1.7 21.2l6.19 16.2 26.9 70.42c2.46 6.45 4.84 8.9 7.33 10l.09-.04c-.88-1.9-1.69-3.84-2.42-5.83-5.01-13.72.18-28.6 12.56-36.29.03-.02.07-.04.1-.06 2.05-1.27 4.18-2.24 6.37-2.96-7.25-18.99-14.58-38.18-14.58-38.18l27.97-10.69z" fill="#c4c4cc"></path><path d="m145.97 58.2-28.67 10.96c-5.52 2.11-9.86 6.01-12.6 10.79-29.33-13.92-51.83-36.72-64.6-51.89h49.3c24.38 19.29 53.54 30.86 56.57 30.14z" fill="#88939e"></path><path d="m166.27 273.86c-.81-4.76-3.44-9.78-6.01-13.82-.05-.06-.2-.23-.03-.07-.19-.24-.37-.47-.57-.71-5.41-6.56-12.41-9.94-20.64-10.75-.74-.03-1.48.01-2.2.12.72-.11 1.46-.15 2.2-.12-.74-.08-1.49-.13-2.25-.16-5.99-.25-11.46 1.78-16.79 4.26-8.82 4.11-18 5.57-27.65 3.81-5.09-.93-9.79-2.96-14.46-5.06-6.11-2.75-12.44-3.76-19.02-2.52s-.09.02-.14.03c-14.3 2.76-24.47 14.8-24.68 29.41-.18 12.15 2.71 23.81 6.18 35.35.45 1.51.96 3 1.49 4.49 1.68 4.68 3.66 9.25 5.33 13.92 3.06 8.53 3.43 17.29 3.02 26.29-.07 1.65-.11 3.3-.12 4.94-.02 5.51.35 10.98 1.27 16.38.77 4.58 1.93 9.11 3.57 13.56 1.17 3.18 2.81 6.07 5.79 7.96 2.43.84 4.45.13 6.27-1.55 1.65-1.51 2.94-3.3 4.14-5.15.94-1.45 1.83-2.93 2.68-4.43 2.9-5.05 5.45-10.29 8.28-15.38 2.94-5.29 5.99-10.53 10.46-14.75 5.21-4.91 10.68-4.93 15.88-.05 4 3.76 6.81 8.39 9.52 13.09 4.11 7.09 7.45 14.6 11.92 21.49 1.51 2.32 3.05 4.66 5.5 6.16 2.27 1.39 4.26 1.28 6.3-.44 1.84-1.54 3.04-3.58 3.92-5.77 4.79-11.96 5.78-24.53 5.15-37.17-.49-9.94.57-19.46 4.38-28.65 1.43-3.45 2.77-6.93 3.98-10.43 3.02-8.64 5.35-17.49 6.69-26.62.87-5.87 1.62-11.7.62-17.63z" fill="#f9eded"></path><path d="m465.12 273.86c-.81-4.79-2.71-9.1-5.29-13.17-.25-.24-.54-.45-.75-.73-.59-.75-1.2-1.46-1.82-2.14-5.23-5.62-11.79-8.57-19.39-9.32-.74-.08-1.49-.13-2.25-.16-5.99-.25-11.46 1.78-16.79 4.26-8.82 4.11-18 5.57-27.65 3.81-5.09-.93-9.79-2.96-14.46-5.06-6.11-2.75-12.44-3.76-19.01-2.52s-.09.02-.14.03c-14.31 2.76-24.47 14.8-24.69 29.41-.18 12.15 2.71 23.81 6.18 35.35.45 1.51.96 3 1.49 4.49 1.68 4.68 3.66 9.25 5.33 13.92 3.06 8.53 3.43 17.29 3.02 26.29-.32 7.17-.04 14.31 1.15 21.33.77 4.57 1.93 9.1 3.57 13.55 1.17 3.18 2.82 6.07 5.8 7.96 2.42.84 4.44.13 6.27-1.55 1.64-1.51 2.93-3.3 4.13-5.15 4.1-6.36 7.29-13.22 10.97-19.81 2.94-5.29 5.99-10.53 10.46-14.75 5.21-4.91 10.68-4.93 15.88-.05 4.01 3.76 6.81 8.39 9.52 13.09 3.26 5.63 6.04 11.51 9.29 17.15.84 1.46 1.71 2.92 2.63 4.34 1.51 2.32 3.05 4.66 5.5 6.16 2.27 1.39 4.26 1.28 6.3-.44 1.84-1.54 3.04-3.58 3.92-5.77 3.92-9.79 5.29-19.99 5.32-30.31 0-2.28-.05-4.57-.17-6.87-.49-9.94.57-19.46 4.38-28.65 1.43-3.45 2.77-6.93 3.98-10.43 3.02-8.64 5.35-17.49 6.69-26.62.87-5.87 1.62-11.7.62-17.63z" fill="#f9eded"></path><path d="m457.26 257.83c.63.67 1.24 1.39 1.82 2.14.21.27.5.49.75.73 2.58 4.06 4.47 8.38 5.29 13.17 1.01 5.93.25 11.77-.62 17.63-1.34 9.14-3.67 17.98-6.69 26.62-1.21 3.51-2.55 6.99-3.98 10.43-3.81 9.19-4.87 18.72-4.38 28.65.11 2.29.17 4.58.17 6.87-.03 10.32-1.41 20.52-5.32 30.31-.88 2.2-2.08 4.23-3.92 5.77-2.04 1.72-4.03 1.82-6.3.44-2.45-1.5-3.99-3.84-5.5-6.16-.92-1.42-1.79-2.87-2.63-4.34-3.25-5.64-6.03-11.53-9.29-17.15-2.72-4.69-5.51-9.32-9.52-13.09-5.19-4.88-10.67-4.86-15.88.05-4.47 4.22-7.52 9.46-10.46 14.75-3.68 6.59-6.87 13.45-10.97 19.81-1.2 1.85-2.48 3.64-4.13 5.15-1.83 1.68-3.85 2.39-6.27 1.55-2.98-1.88-4.63-4.78-5.8-7.96-1.64-4.45-2.8-8.98-3.57-13.55-1.19-7.02-1.47-14.16-1.15-21.33.41-9 .04-17.76-3.02-26.29-1.68-4.67-3.65-9.24-5.33-13.92-.53-1.48-1.04-2.98-1.49-4.49-3.47-11.54-6.36-23.2-6.18-35.35.21-14.61 10.37-26.66 24.69-29.41.05 0 .09-.02.14-.03 6.57-1.24 12.91-.23 19.01 2.52 4.67 2.1 9.36 4.13 14.46 5.06 9.65 1.76 18.83.3 27.65-3.81 5.33-2.48 10.81-4.51 16.79-4.26.76.03 1.51.08 2.25.16 7.6.75 14.16 3.7 19.39 9.32z" fill="none"></path><g fill="#d7d7df"><path d="m166.27 273.86c-.81-4.76-3.44-9.78-6.01-13.82-.05-.06-.2-.23-.03-.07-.19-.24-.37-.47-.57-.71l-.97.72c3 5.58 4.51 13.8 3.6 22.6-1.34 12.99-9.3 24.18-15.9 35.45-.01.03-.03.05-.05.08-2.12 3.64-4.16 7.42-5.17 11.51-.61 2.44-.86 4.95-1.1 7.44-.64 6.58-1.28 13.16-1.92 19.74-.31 3.28-.92 7.05-3.73 8.76-3.06 1.87-7.19.21-9.62-2.43-2.42-2.63-3.8-6.06-5.94-8.94-4.8-6.43-13.38-9.52-21.35-8.51-7.96 1.02-15.18 5.79-20.05 12.17-2.93 3.85-5.07 8.24-7.84 12.2-2.16 3.06-4.83 5.94-8.09 7.69-.95.51-1.94.93-2.99 1.23-2.24.64-4.57.7-6.91.6l-.44.07c.77 4.58 1.93 9.11 3.57 13.56 1.17 3.18 2.81 6.07 5.79 7.96 2.43.84 4.45.13 6.27-1.55 1.65-1.51 2.94-3.3 4.14-5.15.94-1.45 1.83-2.93 2.68-4.43 2.9-5.05 5.45-10.29 8.28-15.38 2.94-5.29 5.99-10.53 10.46-14.75 5.21-4.91 10.68-4.93 15.88-.05 4 3.76 6.81 8.39 9.52 13.09 4.11 7.09 7.45 14.6 11.92 21.49 1.51 2.32 3.05 4.66 5.5 6.16 2.27 1.39 4.26 1.28 6.3-.44 1.84-1.54 3.04-3.58 3.92-5.77 4.79-11.96 5.78-24.53 5.15-37.17-.49-9.94.57-19.46 4.38-28.65 1.43-3.45 2.77-6.93 3.98-10.43 3.02-8.64 5.35-17.49 6.69-26.62.87-5.87 1.62-11.7.62-17.63z" fill="#d7d7df"></path><path d="m139.02 248.52c-5.96-.25-11.17 4.33-16.28 7.68-7.17 4.71-15.65 7.4-24.23 7.68 7.1 5.41 16.92 4.89 25.82 4.12t0 .01c-.12.15-1.47 1.76-5.6 2.85-11.74 1.42-24.45.69-33.92-6.34-1.63-1.21-3.33-2.82-5.21-4.53t0 0c-4.89-4.46-11.05-9.73-20.74-11.14 6.58-1.24 12.91-.23 19.02 2.52 4.67 2.1 9.36 4.13 14.46 5.06 9.65 1.76 18.83.3 27.65-3.81 5.33-2.48 10.81-4.51 16.79-4.26.76.03 1.51.08 2.25.16z" fill="#d7d7df"></path><path d="m465.12 273.86c-.81-4.79-2.71-9.1-5.29-13.17-.25-.24-.54-.45-.75-.73-.59-.75-1.2-1.46-1.82-2.14 2.74 7.98 4.74 16.37 3.88 24.75-1.34 12.99-9.3 24.18-15.9 35.45-.01.03-.03.05-.05.08-2.12 3.64-4.15 7.41-5.17 11.51-.61 2.44-.85 4.95-1.1 7.44-.64 6.58-1.28 13.16-1.91 19.74-.32 3.28-.93 7.05-3.74 8.76-3.06 1.87-7.19.21-9.61-2.43-2.43-2.63-3.81-6.06-5.95-8.94-4.8-6.43-13.38-9.52-21.34-8.51-7.96 1.02-15.19 5.79-20.06 12.17-2.93 3.85-5.06 8.24-7.84 12.2s-6.43 7.6-11.08 8.92c-2.23.64-4.57.7-6.91.6s-.44.08-.44.08c.77 4.57 1.93 9.1 3.57 13.55 1.17 3.18 2.82 6.07 5.8 7.96 2.42.84 4.44.13 6.27-1.55 1.64-1.51 2.93-3.3 4.13-5.15 4.1-6.36 7.29-13.22 10.97-19.81 2.94-5.29 5.99-10.53 10.46-14.75 5.21-4.91 10.68-4.93 15.88-.05 4.01 3.76 6.81 8.39 9.52 13.09 3.26 5.63 6.04 11.51 9.29 17.15.84 1.46 1.71 2.92 2.63 4.34 1.51 2.32 3.05 4.66 5.5 6.16 2.27 1.39 4.26 1.28 6.3-.44 1.84-1.54 3.04-3.58 3.92-5.77 3.92-9.79 5.29-19.99 5.32-30.31 0-2.28-.05-4.57-.17-6.87-.49-9.94.57-19.46 4.38-28.65 1.43-3.45 2.77-6.93 3.98-10.43 3.02-8.64 5.35-17.49 6.69-26.62.87-5.87 1.62-11.7.62-17.63z" fill="#d7d7df"></path><path d="m437.87 248.52c-5.96-.25-11.17 4.33-16.28 7.68-7.17 4.71-15.65 7.4-24.23 7.68 7.1 5.41 16.92 4.89 25.82 4.12v.01c-.12.15-1.47 1.77-5.6 2.85-11.74 1.42-24.45.69-33.92-6.34-1.63-1.21-3.33-2.82-5.21-4.53-4.88-4.47-11.05-9.74-20.73-11.15 6.57-1.24 12.91-.23 19.01 2.52 4.67 2.1 9.36 4.13 14.46 5.06 9.65 1.76 18.83.3 27.65-3.81 5.33-2.48 10.81-4.51 16.79-4.26.76.03 1.51.08 2.25.16z" fill="#d7d7df"></path></g><path d="m286.6 258.09c-.03-1.51-.12-3.01-.25-4.5-.01-.14-.03-.28-.04-.42-.14-1.49-.32-2.97-.55-4.44-.12-.78-.25-1.55-.4-2.32-.83-4.43-2.04-8.77-3.52-13.03-.13-.39-.27-.77-.41-1.16-.73-2.02-1.51-4.03-2.34-6.02-.31-.73-.62-1.45-.94-2.18-.66-1.49-1.26-2.99-1.82-4.5-1.18-3.14-2.17-6.31-2.89-9.53-.64-2.86-1.08-5.75-1.3-8.7-.13-1.84-.18-3.71-.13-5.6.37-12.93-.43-25.76-3.25-38.42-1.29-5.79-2.66-11.51-5.71-16.7-.2-.33-.4-.65-.61-.97l-.15.05c3.06 8.07 2.04 11.37.11 14.04l-14.16 18.61c-5.99 6.57-10.23 1.89-13.2-5.91l-13.23-34.62-.75-1.97-.07.03c-3.24 2.01-6.07 4.63-8.78 7.42-6.77 6.99-14.83 11.63-24.47 13.42-5.09.95-10.2.73-15.32.43-4.29-.25-8.41.2-12.32 1.49-2.19.71-4.32 1.69-6.37 2.96-.03.02-.07.04-.1.06-12.38 7.68-17.57 22.57-12.56 36.29.73 1.99 1.54 3.93 2.42 5.83 4.16 9.01 9.9 17.11 15.97 24.98 3 3.89 6.38 7.45 9.68 11.07 0 0 .01.01.02.02 1.1 1.21 2.19 2.43 3.26 3.68 5.9 6.87 9.38 14.93 12.21 23.47 2.26 6.81 5.07 13.38 8.68 19.52.59 1 1.2 1.99 1.83 2.97s1.29 1.94 1.97 2.89c1.36 1.9 2.81 3.75 4.37 5.53.28.32.56.63.85.93 2.03 2.12 4.38 3.82 7.4 4.43 1.61-.05 2.84-.62 3.82-1.57.19-.19.38-.4.55-.62.35-.44.66-.95.94-1.5.25-.5.47-1.01.68-1.52.2-.51.38-1.04.54-1.56.32-1.05.58-2.12.81-3.2.39-1.85.72-3.71 1-5.57.7-4.55 1.16-9.13 1.74-13.69.13-1.05.27-2.1.42-3.15.43-3 .89-5.99 1.58-8.93.17-.73.36-1.46.56-2.19.61-2.18 1.37-4.32 2.38-6.4 1.36-2.82 3.1-4.78 5.19-5.87.59-.31 1.22-.55 1.87-.72 1.3-.34 2.7-.39 4.21-.15 1.13.18 2.31.52 3.55 1.03 2.54 1.05 4.88 2.4 7.11 3.92s4.35 3.2 6.46 4.91c1.59 1.29 3.15 2.62 4.69 3.97 4.63 4.04 9.14 8.23 14.11 11.86 1.4 1.02 2.81 2.04 4.36 2.79.31.15.63.29.95.41.65.25 1.32.45 2.03.58.33.06.64.1.94.12.8.05 1.51-.05 2.16-.3 1.06-.4 1.92-1.2 2.62-2.47.29-.53.53-1.07.73-1.62.6-1.65.84-3.4.86-5.18.01-.84 0-1.67 0-2.5z" fill="#f9eded"></path><path d="m278.16 224.02c-3.24-7.38-5.44-14.87-6.01-22.73-3.89-.88-8.42-1.64-12.76-1.59-5.06.05-9.86 1.19-13.11 4.51-3.37 3.45-4.77 8.77-8.92 11.22-2.42 1.43-5.37 1.6-8.18 1.5-11.53-.41-24.47-4.4-33.66 2.57-4.48 3.39-7 8.78-11.2 12.5-4.19 3.72-11.13 5.64-15.14 1.8 1.1 1.21 2.19 2.43 3.26 3.68 5.9 6.87 9.38 14.93 12.21 23.47 2.26 6.81 5.07 13.38 8.68 19.52 2.35 4 5.05 7.82 8.17 11.39 2.22 2.55 4.79 4.67 8.25 5.37 2.57-.09 4.2-1.47 5.31-3.69 1.01-2 1.56-4.13 2.02-6.29 1.56-7.4 2.1-14.95 3.17-22.42.87-6 1.84-11.97 4.51-17.51 3.11-6.45 8.22-8.42 14.81-5.71 5.09 2.09 9.35 5.41 13.56 8.82 6.37 5.15 12.17 10.98 18.81 15.82 2.24 1.64 4.51 3.27 7.34 3.79 2.62.49 4.43-.32 5.73-2.65 1.16-2.1 1.56-4.43 1.6-6.8.21-12.88-3.35-24.97-8.44-36.56z" fill="#ff7f9f" style="fill: rgb(128, 189, 255);"></path><path d="m278.16 224.02c5.09 11.59 8.65 23.68 8.44 36.56-.03 2.37-.44 4.69-1.6 6.8-1.29 2.33-3.75 9.11-6.37 8.62-2.83-.52-7.64-4.66-9.88-6.3-6.63-4.84-12.4-3.53-18.76-8.69-4.22-3.41-3.06-5.91-8.15-8.01-6.59-2.7-5.75-4.91-8.86 1.53-2.68 5.55-4.93 8.99-5.79 14.99-1.07 7.47-8.56 10.32-10.13 17.72-.46 2.16-1.02 4.29-2.02 6.29-1.11 2.22-2.74 3.6-5.31 3.69-3.46-.7-6.03-2.82-8.25-5.37-3.12-3.57-5.82-7.39-8.17-11.39l.39-.23c2.21-.74 4.37-1.63 6.23-3.02 3.88-2.9 5.98-7.6 7.17-12.29s1.61-9.55 2.98-14.19c2.26-7.7 7.31-14.74 14.39-18.53s16.2-3.97 22.97.33c3.02 1.92 5.53 4.63 8.74 6.23 3.21 1.59 7.66 1.68 9.84-1.16 2.02-2.62 1.24-6.34.37-9.52-1.75-6.37-3.5-12.75-5.26-19.12-.66-2.42-1.33-4.85-1.63-7.35-.08-.65-.11-1.29-.12-1.92 4.34-.05 8.87.71 12.76 1.59.57 7.86 2.77 15.36 6.01 22.73z" fill="#ff4d7c" style="fill: rgb(77, 171, 219);"></path><path d="m259.39 199.7c4.34-.05 8.87.71 12.76 1.59-.13-1.84-.18-3.71-.13-5.6.37-12.93-.43-25.76-3.25-38.42-1.29-5.79-2.66-11.51-5.71-16.7-.2-.33-.4-.65-.61-.97l-.15.05c3.06 8.07 2.04 11.37.11 14.04l-14.16 18.61c-5.99 6.57-10.23 1.89-13.2-5.91l-13.23-34.62-.75-1.97-.07.03c-3.24 2.01-6.07 4.63-8.78 7.42-6.77 6.99-14.83 11.63-24.47 13.42-5.09.95-10.2.73-15.32.43-4.29-.25-8.41.2-12.32 1.49-2.19.71-4.32 1.69-6.37 2.96 9.56-2.16 17.21.57 23.37 3 2.38.93 4.53 1.82 6.49 2.38 11.35 3.18 23.48-.66 33.93-6.17q.75-.41.75-.41c3.47 5.63 9.82 28.96 16.59 32.38 14.91 7.53 25.98-20.79 25.35 2.2-.1 3.6-.93 7.19-.87 10.77z" fill="#d7d7df"></path><path d="m285.01 267.38c-.33 6.53-.09 10.75-.31 15.2-.21 4.45-2.27 9.4-6.54 10.68-4.46 1.35-9.28-2.28-10.58-6.76-.63-2.16-.64-4.48-1.45-6.58-1.22-3.18-4.33-5.56-7.72-5.89s-6.91 1.4-8.71 4.29c-1.94 3.09-1.88 6.99-1.76 10.63.14 4.15.28 8.3.42 12.45.11 3.2.21 6.47-.76 9.52s-3.23 5.89-6.34 6.65c-5.65 1.39-10.63-4.6-11.56-10.34-.93-5.75.54-11.67-.41-17.41-.59-3.62-3.17-7.48-6.82-7.15-3.3.31-5.02 3.21-5.4 4.57 1.56-7.4 2.1-14.95 3.17-22.42.87-6 1.84-11.97 4.51-17.51 3.11-6.45 8.22-8.42 14.81-5.71 5.09 2.09 9.35 5.41 13.56 8.82 6.37 5.15 12.17 10.98 18.81 15.82 2.24 1.64 4.51 3.27 7.34 3.79 2.62.49 4.44-.32 5.73-2.65z" fill="#bc5972" style="fill: rgb(88, 126, 187);"></path></svg>